<svg width="12" height="10" viewBox="0 0 12 10" fill="none" xmlns="http://www.w3.org/2000/svg">
<g clip-path="url(#clip0_1016_2207)">
<path d="M11.1463 5.29167L10.7803 5.59667L8.98731 4.10084C8.65393 3.83592 8.21096 3.68814 7.75031 3.68814C7.28966 3.68814 6.84669 3.83592 6.51331 4.10084L6.42631 4.17292C6.37943 4.21198 6.31585 4.23392 6.24956 4.23392C6.18327 4.23392 6.11969 4.21198 6.07281 4.17292L4.02281 2.46459C3.88083 2.35283 3.69214 2.29163 3.49686 2.29401C3.30158 2.29639 3.11511 2.36215 2.97711 2.47732C2.83911 2.59248 2.76045 2.74796 2.75788 2.9107C2.7553 3.07344 2.829 3.23059 2.96331 3.34875L5.01331 5.05709C5.34663 5.32209 5.78962 5.46994 6.25031 5.46994C6.711 5.46994 7.15399 5.32209 7.48731 5.05709L7.57431 4.985C7.62119 4.94595 7.68477 4.92401 7.75106 4.92401C7.81735 4.92401 7.88093 4.94595 7.92781 4.985L9.72031 6.47875L9.35381 6.78417C9.28391 6.84244 9.2363 6.91668 9.21702 6.99749C9.19773 7.0783 9.20764 7.16207 9.24547 7.23819C9.28331 7.31432 9.34738 7.37938 9.42958 7.42517C9.51179 7.47096 9.60844 7.4954 9.70731 7.49542H11.2498C11.4487 7.49542 11.6395 7.42957 11.7801 7.31236C11.9208 7.19515 11.9998 7.03618 11.9998 6.87042V5.58334C11.9991 5.50119 11.9693 5.42105 11.9141 5.35299C11.8589 5.28493 11.7807 5.23199 11.6895 5.20082C11.5983 5.16965 11.4981 5.16165 11.4014 5.17781C11.3048 5.19397 11.216 5.23359 11.1463 5.29167Z" fill="white"/>
<path d="M11.25 8.75H2.75C2.41848 8.75 2.10054 8.64025 1.86612 8.4449C1.6317 8.24955 1.5 7.9846 1.5 7.70833V0.625C1.5 0.45924 1.42098 0.300269 1.28033 0.183058C1.13968 0.065848 0.948912 0 0.75 0C0.551088 0 0.360322 0.065848 0.21967 0.183058C0.0790176 0.300269 0 0.45924 0 0.625L0 7.70833C0.000794085 8.31592 0.29078 8.89843 0.806333 9.32806C1.32189 9.75768 2.0209 9.99934 2.75 10H11.25C11.4489 10 11.6397 9.93415 11.7803 9.81694C11.921 9.69973 12 9.54076 12 9.375C12 9.20924 11.921 9.05027 11.7803 8.93306C11.6397 8.81585 11.4489 8.75 11.25 8.75Z" fill="white"/>
</g>
<defs>
<clipPath id="clip0_1016_2207">
<rect width="12" height="10" fill="white"/>
</clipPath>
</defs>
</svg>
