<svg width="12" height="10" viewBox="0 0 12 10" fill="none" xmlns="http://www.w3.org/2000/svg">
<g clip-path="url(#clip0_1016_2198)">
<path d="M11.25 8.75H2.75C2.41848 8.75 2.10054 8.64025 1.86612 8.4449C1.6317 8.24955 1.5 7.9846 1.5 7.70833V0.625C1.5 0.45924 1.42098 0.300269 1.28033 0.183058C1.13968 0.065848 0.948912 0 0.75 0C0.551088 0 0.360322 0.065848 0.21967 0.183058C0.0790176 0.300269 0 0.45924 0 0.625L0 7.70833C0.000794085 8.31592 0.29078 8.89843 0.806333 9.32806C1.32189 9.75768 2.0209 9.99934 2.75 10H11.25C11.4489 10 11.6397 9.93415 11.7803 9.81694C11.921 9.69973 12 9.54076 12 9.375C12 9.20924 11.921 9.05027 11.7803 8.93306C11.6397 8.81585 11.4489 8.75 11.25 8.75Z" fill="#2C2C2C"/>
<path d="M11.2499 1.65674H9.70685C9.60798 1.65676 9.51133 1.6812 9.42912 1.72699C9.34692 1.77277 9.28285 1.83784 9.24502 1.91397C9.20718 1.99009 9.19728 2.07385 9.21656 2.15467C9.23585 2.23548 9.28345 2.30972 9.35335 2.36799L9.71985 2.67299L7.92636 4.16674C7.90313 4.18614 7.87555 4.20153 7.84517 4.21204C7.8148 4.22254 7.78224 4.22794 7.74936 4.22794C7.71647 4.22794 7.68391 4.22254 7.65354 4.21204C7.62317 4.20153 7.59558 4.18614 7.57236 4.16674L7.48736 4.09591C7.15404 3.83056 6.71082 3.68249 6.24986 3.68249C5.7889 3.68249 5.34567 3.83056 5.01236 4.09591L2.96236 5.80424C2.89073 5.86189 2.8336 5.93086 2.79429 6.00711C2.75498 6.08336 2.73429 6.16538 2.73343 6.24836C2.73256 6.33135 2.75154 6.41365 2.78925 6.49046C2.82696 6.56727 2.88265 6.63705 2.95307 6.69574C3.02349 6.75442 3.10723 6.80083 3.1994 6.83225C3.29157 6.86368 3.39033 6.87949 3.48991 6.87877C3.5895 6.87805 3.68791 6.86081 3.77942 6.82805C3.87092 6.7953 3.95368 6.74768 4.02286 6.68799L6.07286 4.97966C6.09608 4.96025 6.12367 4.94486 6.15404 4.93436C6.18442 4.92386 6.21698 4.91845 6.24986 4.91845C6.28274 4.91845 6.3153 4.92386 6.34568 4.93436C6.37605 4.94486 6.40364 4.96025 6.42686 4.97966L6.51186 5.05049C6.84529 5.31564 7.28847 5.46358 7.74936 5.46358C8.21025 5.46358 8.65343 5.31564 8.98686 5.05049L10.7799 3.55674L11.1459 3.86216C11.2158 3.92055 11.3049 3.96035 11.4019 3.9765C11.499 3.99265 11.5996 3.98443 11.6911 3.95289C11.7825 3.92134 11.8607 3.86789 11.9157 3.79929C11.9706 3.7307 11.9999 3.65005 11.9999 3.56757V2.28174C11.9999 2.11598 11.9208 1.95701 11.7802 1.8398C11.6395 1.72259 11.4488 1.65674 11.2499 1.65674Z" fill="#2C2C2C"/>
</g>
<defs>
<clipPath id="clip0_1016_2198">
<rect width="12" height="10" fill="white"/>
</clipPath>
</defs>
</svg>
