<svg width="29" height="20" viewBox="0 0 23 11" fill="none" xmlns="http://www.w3.org/2000/svg">
<path d="M22.6956 4.47589L21.0634 2.74954C21.5002 2.21999 21.753 1.83871 21.7875 1.77516C22.1094 1.27738 21.9255 0.620732 21.3852 0.324182C20.845 0.0276311 20.1324 0.186497 19.8105 0.694869C19.776 0.747825 16.4887 5.72564 11.4772 5.72564C6.46569 5.72564 3.41971 0.959647 3.21282 0.631323C3.0519 0.302999 2.71857 0.0594042 2.29328 0.00644872C1.6496 -0.0570978 1.09788 0.355955 1.01742 0.938465C0.959945 1.36211 1.43121 2.07171 1.94845 2.71777L0.281785 4.47589C0.182699 4.5808 0.107058 4.7027 0.0591972 4.8346C0.0113362 4.96651 -0.00780377 5.10581 0.00287422 5.24454C0.0135522 5.38327 0.0538382 5.5187 0.121423 5.64305C0.189008 5.76741 0.282564 5.87825 0.396727 5.96923C0.509727 6.06143 0.641397 6.13212 0.784161 6.17725C0.926925 6.22238 1.07796 6.24106 1.22859 6.2322C1.37921 6.22334 1.52645 6.18712 1.66183 6.12563C1.79721 6.06414 1.91805 5.9786 2.01742 5.87391L3.46569 4.3488C4.06339 4.91012 4.75305 5.48204 5.54615 6.00101L4.12086 8.40518C3.82201 8.91356 4.01742 9.55961 4.58063 9.84557C4.84931 9.97852 5.16401 10.0086 5.45659 9.92932C5.74916 9.85003 5.99607 9.66774 6.14385 9.42193L7.54615 7.06011C8.39672 7.40962 9.33925 7.65322 10.3507 7.76972V9.94089C10.3507 10.5234 10.868 11 11.5002 11C12.1324 11 12.6496 10.5234 12.6496 9.94089V7.78031C13.6611 7.66381 14.5921 7.39903 15.4427 7.04952L16.8565 9.43252C17.0634 9.78203 17.4542 9.98326 17.868 9.98326C18.0519 9.98326 18.2473 9.94089 18.4197 9.85616C18.9714 9.58079 19.1783 8.93474 18.8795 8.41577L17.4542 6.0116C18.2703 5.49263 18.9714 4.92071 19.5691 4.35939L20.9829 5.85273C21.2128 6.09633 21.5232 6.21283 21.845 6.21283C22.1094 6.21283 22.3852 6.1281 22.6036 5.94805C23.0864 5.56677 23.1324 4.89953 22.7186 4.45471L22.6956 4.47589Z" fill="#404040"/>
</svg>
