<svg width="24" height="24" viewBox="0 0 24 24" fill="none" xmlns="http://www.w3.org/2000/svg">
<g clip-path="url(#clip0_44_971)">
<path d="M8 21H3.409C3.30061 20.9997 3.19673 20.9566 3.12009 20.8799C3.04344 20.8033 3.00026 20.6994 3 20.591V3.409C3.00026 3.30061 3.04344 3.19673 3.12009 3.12009C3.19673 3.04344 3.30061 3.00026 3.409 3H8C8.39782 3 8.77936 2.84196 9.06066 2.56066C9.34196 2.27936 9.5 1.89782 9.5 1.5C9.5 1.10218 9.34196 0.720644 9.06066 0.43934C8.77936 0.158035 8.39782 0 8 0L3.409 0C2.5052 0.00105862 1.63872 0.36056 0.999642 0.999642C0.36056 1.63872 0.00105862 2.5052 0 3.409L0 20.591C0.00105862 21.4948 0.36056 22.3613 0.999642 23.0004C1.63872 23.6394 2.5052 23.9989 3.409 24H8C8.39782 24 8.77936 23.842 9.06066 23.5607C9.34196 23.2794 9.5 22.8978 9.5 22.5C9.5 22.1022 9.34196 21.7206 9.06066 21.4393C8.77936 21.158 8.39782 21 8 21Z" fill="white"/>
<path d="M22.682 8.81739L18.8 4.93839C18.6607 4.79913 18.4953 4.68867 18.3132 4.61332C18.1312 4.53798 17.9361 4.49922 17.7391 4.49927C17.5421 4.49931 17.3471 4.53816 17.1651 4.61359C16.9831 4.68902 16.8178 4.79956 16.6785 4.93889C16.5392 5.07823 16.4288 5.24363 16.3534 5.42565C16.2781 5.60767 16.2393 5.80275 16.2394 5.99975C16.2395 6.39761 16.3976 6.77913 16.679 7.06039L20.091 10.4714L6.5 10.4994C6.10218 10.4994 5.72064 10.6574 5.43934 10.9387C5.15804 11.22 5 11.6016 5 11.9994C5 12.3972 5.15804 12.7788 5.43934 13.0601C5.72064 13.3414 6.10218 13.4994 6.5 13.4994L20.146 13.4744L16.679 16.9414C16.4142 17.2259 16.2701 17.602 16.2771 17.9906C16.2842 18.3792 16.4418 18.7499 16.7167 19.0246C16.9917 19.2993 17.3625 19.4566 17.7511 19.4632C18.1398 19.4699 18.5158 19.3255 18.8 19.0604L22.679 15.1814C23.0969 14.7635 23.4283 14.2675 23.6545 13.7215C23.8806 13.1755 23.997 12.5903 23.997 11.9994C23.997 11.4084 23.8806 10.8233 23.6545 10.2773C23.4283 9.73134 23.0969 9.23526 22.679 8.81739H22.682Z" fill="white"/>
</g>
<defs>
<clipPath id="clip0_44_971">
<rect width="24" height="24" fill="white"/>
</clipPath>
</defs>
</svg>
