<svg width="11" height="10" viewBox="0 0 11 10" fill="none" xmlns="http://www.w3.org/2000/svg">
<mask id="mask0_1016_2244" style="mask-type:alpha" maskUnits="userSpaceOnUse" x="0" y="0" width="11" height="10">
<rect x="0.0654297" y="0.929932" width="10.2458" height="8.34976" fill="#D9D9D9"/>
</mask>
<g mask="url(#mask0_1016_2244)">
<path d="M5.38496 9.26709C5.29541 9.26709 5.22035 9.23365 5.15977 9.16677C5.09919 9.09989 5.0689 9.01701 5.0689 8.91815V6.82452L3.23574 4.24238C3.15672 4.12607 3.14487 4.00394 3.20018 3.876C3.25549 3.74805 3.35163 3.68408 3.48859 3.68408H7.91346C8.05042 3.68408 8.14656 3.74805 8.20187 3.876C8.25718 4.00394 8.24533 4.12607 8.16631 4.24238L6.33315 6.82452V8.91815C6.33315 9.01701 6.30286 9.09989 6.24228 9.16677C6.1817 9.23365 6.10664 9.26709 6.01709 9.26709H5.38496ZM5.70102 6.58027L7.26554 4.38196H4.13651L5.70102 6.58027Z" fill="white"/>
</g>
</svg>
