<svg width="29" height="20" viewBox="0 0 29 20" fill="none" xmlns="http://www.w3.org/2000/svg">
<path fill-rule="evenodd" clip-rule="evenodd" d="M14.8997 2.91139C10.1603 2.91139 5.98799 5.57133 3.71487 9.58964C3.60581 9.78243 3.60581 10.0176 3.71487 10.2104C5.98799 14.2287 10.1603 16.8887 14.8997 16.8887C19.6392 16.8887 23.8115 14.2287 26.0846 10.2104C26.1937 10.0176 26.1937 9.78243 26.0846 9.58964C23.8115 5.57133 19.6392 2.91139 14.8997 2.91139ZM1.26328 8.2028C3.99584 3.37231 9.0657 0.0947266 14.8997 0.0947266C20.7338 0.0947266 25.8036 3.37231 28.5362 8.2028C29.132 9.25608 29.132 10.544 28.5362 11.5972C25.8036 16.4277 20.7338 19.7053 14.8997 19.7053C9.0657 19.7053 3.99584 16.4277 1.26328 11.5972C0.667449 10.544 0.667449 9.25608 1.26328 8.2028ZM14.8997 6.51009C13.0275 6.51009 11.5098 8.02781 11.5098 9.90002C11.5098 11.7722 13.0275 13.29 14.8997 13.29C16.7719 13.29 18.2897 11.7722 18.2897 9.90002C18.2897 8.02781 16.7719 6.51009 14.8997 6.51009ZM8.69314 9.90002C8.69314 6.47221 11.4719 3.69342 14.8997 3.69342C18.3275 3.69342 21.1063 6.47221 21.1063 9.90002C21.1063 13.3278 18.3275 16.1066 14.8997 16.1066C11.4719 16.1066 8.69314 13.3278 8.69314 9.90002Z" fill="#2B2B2B" fill-opacity="0.8"/>
</svg>
