<svg width="18" height="17" viewBox="0 0 18 17" fill="none" xmlns="http://www.w3.org/2000/svg">
<g clip-path="url(#clip0_44_1000)">
<path d="M8.94373 8.5C9.82822 8.5 10.6928 8.25074 11.4283 7.78375C12.1637 7.31675 12.7369 6.65299 13.0754 5.87641C13.4138 5.09982 13.5024 4.24529 13.3299 3.42087C13.1573 2.59645 12.7314 1.83917 12.1059 1.2448C11.4805 0.650425 10.6837 0.245652 9.81618 0.0816645C8.94869 -0.0823227 8.04951 0.00184147 7.23235 0.323514C6.41519 0.645186 5.71675 1.18992 5.22536 1.88883C4.73396 2.58774 4.47168 3.40943 4.47168 4.25C4.47286 5.37683 4.9444 6.45718 5.78282 7.25396C6.62124 8.05075 7.75803 8.49888 8.94373 8.5ZM8.94373 1.41667C9.53339 1.41667 10.1098 1.58284 10.6001 1.89417C11.0904 2.2055 11.4725 2.64801 11.6982 3.16573C11.9238 3.68346 11.9828 4.25314 11.8678 4.80276C11.7528 5.35237 11.4688 5.85722 11.0519 6.25347C10.6349 6.64972 10.1037 6.91957 9.52537 7.02889C8.94704 7.13822 8.34758 7.08211 7.80281 6.86766C7.25804 6.65321 6.79241 6.29006 6.46481 5.82412C6.13722 5.35818 5.96236 4.81038 5.96236 4.25C5.96236 3.49856 6.27647 2.77789 6.83558 2.24653C7.3947 1.71518 8.15302 1.41667 8.94373 1.41667Z" fill="white"/>
<path d="M8.9444 9.91699C7.16592 9.91887 5.46084 10.5911 4.20326 11.7863C2.94568 12.9814 2.2383 14.6018 2.23633 16.292C2.23633 16.4799 2.31485 16.66 2.45463 16.7929C2.59441 16.9257 2.78399 17.0003 2.98167 17.0003C3.17935 17.0003 3.36893 16.9257 3.50871 16.7929C3.64848 16.66 3.72701 16.4799 3.72701 16.292C3.72701 14.977 4.2767 13.7158 5.25515 12.7859C6.2336 11.8561 7.56066 11.3337 8.9444 11.3337C10.3281 11.3337 11.6552 11.8561 12.6337 12.7859C13.6121 13.7158 14.1618 14.977 14.1618 16.292C14.1618 16.4799 14.2403 16.66 14.3801 16.7929C14.5199 16.9257 14.7095 17.0003 14.9071 17.0003C15.1048 17.0003 15.2944 16.9257 15.4342 16.7929C15.574 16.66 15.6525 16.4799 15.6525 16.292C15.6505 14.6018 14.9431 12.9814 13.6855 11.7863C12.428 10.5911 10.7229 9.91887 8.9444 9.91699Z" fill="white"/>
</g>
<defs>
<clipPath id="clip0_44_1000">
<rect width="17.8882" height="17" fill="white"/>
</clipPath>
</defs>
</svg>
