<svg width="6" height="6" viewBox="0 0 6 6" fill="none" xmlns="http://www.w3.org/2000/svg">
<g clip-path="url(#clip0_1016_2212)">
<path d="M0.771164 2.67102C0.952201 1.44077 2.09628 0.590207 3.32653 0.771244C3.74627 0.833007 4.14001 1.01211 4.46241 1.28791L4.17218 1.57813C4.07491 1.67543 4.07493 1.83317 4.17224 1.93044C4.21894 1.97713 4.28228 2.00337 4.34832 2.00338H5.49079C5.62838 2.00338 5.73991 1.89185 5.73991 1.75426V0.611787C5.73987 0.474202 5.62832 0.362693 5.49073 0.362717C5.4247 0.362728 5.36136 0.388968 5.31466 0.435655L4.99078 0.759509C3.75576 -0.341393 1.86212 -0.232675 0.761215 1.00234C0.371196 1.43987 0.118096 1.9822 0.0332706 2.56215C-0.000173951 2.76776 0.139385 2.96155 0.34498 2.99499C0.3635 2.998 0.382208 2.99963 0.400974 2.99986C0.589076 2.99783 0.746968 2.85757 0.771164 2.67102Z" fill="white"/>
<path d="M5.5977 2.99976C5.4096 3.00179 5.2517 3.14205 5.22751 3.3286C5.04647 4.55885 3.9024 5.4094 2.67214 5.22838C2.25241 5.16662 1.85866 4.98752 1.53627 4.71172L1.82649 4.4215C1.92376 4.3242 1.92374 4.16646 1.82643 4.06918C1.77973 4.0225 1.71639 3.99626 1.65036 3.99625H0.507906C0.370321 3.99625 0.258789 4.10778 0.258789 4.24536V5.38783C0.258824 5.52542 0.37038 5.63693 0.507965 5.6369C0.574001 5.63689 0.63734 5.61065 0.684039 5.56397L1.00789 5.24011C2.24262 6.34113 4.13612 6.23275 5.23715 4.99801C5.62738 4.5604 5.8806 4.01788 5.9654 3.43772C5.99899 3.23214 5.85956 3.03826 5.65398 3.00467C5.63537 3.00162 5.61656 2.99998 5.5977 2.99976Z" fill="white"/>
</g>
<defs>
<clipPath id="clip0_1016_2212">
<rect width="6" height="6" fill="white"/>
</clipPath>
</defs>
</svg>
