<svg width="17" height="10" viewBox="0 0 17 10" fill="none" xmlns="http://www.w3.org/2000/svg">
<path d="M16.0487 1.26251C15.9441 1.14535 15.8197 1.05236 15.6826 0.988894C15.5455 0.925434 15.3984 0.892761 15.2499 0.892761C15.1014 0.892761 14.9544 0.925434 14.8173 0.988894C14.6802 1.05236 14.5558 1.14535 14.4512 1.26251L9.29867 6.9875C9.19408 7.10466 9.06966 7.19765 8.93256 7.26111C8.79547 7.32457 8.64843 7.35724 8.49992 7.35724C8.3514 7.35724 8.20436 7.32457 8.06727 7.26111C7.93018 7.19765 7.80575 7.10466 7.70117 6.9875L2.54867 1.26251C2.44408 1.14535 2.31966 1.05236 2.18256 0.988894C2.04547 0.925434 1.89843 0.892761 1.74992 0.892761C1.6014 0.892761 1.45436 0.925434 1.31727 0.988894C1.18017 1.05236 1.05575 1.14535 0.951165 1.26251C0.741633 1.49671 0.624023 1.81353 0.624023 2.14376C0.624023 2.47399 0.741633 2.7908 0.951165 3.025L6.11492 8.76249C6.74773 9.46474 7.60554 9.85919 8.49992 9.85919C9.39429 9.85919 10.2521 9.46474 10.8849 8.76249L16.0487 3.025C16.2582 2.7908 16.3758 2.47399 16.3758 2.14376C16.3758 1.81353 16.2582 1.49671 16.0487 1.26251Z" fill="#7C7C7C"/>
</svg>
