<svg width="40" height="42" viewBox="0 0 40 42" fill="none" xmlns="http://www.w3.org/2000/svg">
<path fill-rule="evenodd" clip-rule="evenodd" d="M17.5832 4.50694L17.0312 6.79799C16.1935 10.2747 12.6147 12.3409 9.18489 11.3281L6.92653 10.6611C5.92818 11.9216 5.1089 13.3288 4.50616 14.8444L6.21624 16.4699C8.80833 18.9337 8.80833 23.0662 6.21624 25.53L4.50616 27.1555C5.1089 28.6711 5.92818 30.0783 6.92653 31.3388L9.18489 30.6719C12.6147 29.659 16.1935 31.7252 17.0312 35.2019L17.5832 37.493C18.3713 37.6073 19.1781 37.6666 19.9998 37.6666C20.8215 37.6666 21.6284 37.6073 22.4165 37.493L22.9685 35.2019C23.8062 31.7252 27.385 29.659 30.8148 30.6719L33.0731 31.3388C34.0715 30.0784 34.8908 28.6711 35.4935 27.1555L33.7834 25.53C31.1913 23.0662 31.1913 18.9337 33.7834 16.4699L35.4935 14.8444C34.8908 13.3288 34.0715 11.9216 33.0731 10.6611L30.8148 11.328C27.385 12.3409 23.8062 10.2747 22.9685 6.79799L22.4165 4.50694C21.6284 4.3926 20.8215 4.33329 19.9998 4.33329C19.1781 4.33329 18.3713 4.3926 17.5832 4.50694ZM15.4179 0.672556C16.8942 0.341097 18.4279 0.166626 19.9998 0.166626C21.5718 0.166626 23.1055 0.341097 24.5817 0.672555C25.3563 0.846472 25.9647 1.44549 26.1507 2.21727L27.0192 5.82198C27.2985 6.98089 28.4914 7.66963 29.6347 7.332L33.1864 6.28308C33.9469 6.0585 34.7689 6.28507 35.3069 6.86753C37.3787 9.11057 38.9653 11.8124 39.8963 14.806C40.1318 15.5632 39.917 16.3884 39.3423 16.9347L36.654 19.4899C35.79 20.3112 35.79 21.6887 36.654 22.51L39.3423 25.0652C39.917 25.6115 40.1318 26.4368 39.8963 27.194C38.9653 30.1875 37.3787 32.8893 35.3069 35.1324C34.7689 35.7149 33.9469 35.9414 33.1864 35.7168L29.6347 34.6679C28.4914 34.3303 27.2985 35.019 27.0192 36.1779L26.1507 39.7826C25.9647 40.5544 25.3563 41.1535 24.5817 41.3274C23.1055 41.6588 21.5718 41.8333 19.9998 41.8333C18.4279 41.8333 16.8942 41.6588 15.4179 41.3274C14.6434 41.1535 14.0349 40.5544 13.849 39.7826L12.9804 36.1779C12.7012 35.019 11.5083 34.3303 10.365 34.6679L6.81322 35.7168C6.05278 35.9414 5.23078 35.7149 4.69278 35.1324C2.62093 32.8893 1.03436 30.1875 0.103331 27.194C-0.13216 26.4368 0.082616 25.6115 0.657363 25.0652L3.34562 22.51C4.20965 21.6887 4.20965 20.3112 3.34562 19.4899L0.657364 16.9347C0.0826161 16.3884 -0.132161 15.5632 0.103331 14.806C1.03436 11.8124 2.62093 9.11058 4.69277 6.86753C5.23078 6.28507 6.05278 6.0585 6.81322 6.28308L10.365 7.332C11.5083 7.66963 12.7012 6.98089 12.9804 5.82198L13.849 2.21727C14.0349 1.44549 14.6434 0.846473 15.4179 0.672556ZM19.9998 16.8333C17.6986 16.8333 15.8332 18.6988 15.8332 21C15.8332 23.3011 17.6986 25.1666 19.9998 25.1666C22.301 25.1666 24.1665 23.3011 24.1665 21C24.1665 18.6988 22.301 16.8333 19.9998 16.8333ZM11.6665 21C11.6665 16.3976 15.3975 12.6666 19.9998 12.6666C24.6022 12.6666 28.3332 16.3976 28.3332 21C28.3332 25.6023 24.6022 29.3333 19.9998 29.3333C15.3975 29.3333 11.6665 25.6023 11.6665 21Z" fill="#7C7C7C"/>
</svg>
