<svg width="19" height="19" viewBox="0 0 19 19" fill="none" xmlns="http://www.w3.org/2000/svg">
<g clip-path="url(#clip0_44_984)">
<path d="M4.29421 13.4585C4.94102 13.4585 5.46536 12.9268 5.46536 12.271C5.46536 11.6152 4.94102 11.0835 4.29421 11.0835C3.64739 11.0835 3.12305 11.6152 3.12305 12.271C3.12305 12.9268 3.64739 13.4585 4.29421 13.4585Z" fill="white"/>
<path d="M14.8347 2.375H3.90386C2.86887 2.37626 1.87663 2.7937 1.14478 3.53576C0.412937 4.27782 0.00123976 5.2839 0 6.33333L0 12.6667C0.00123976 13.7161 0.412937 14.7222 1.14478 15.4642C1.87663 16.2063 2.86887 16.6237 3.90386 16.625H14.8347C15.8697 16.6237 16.8619 16.2063 17.5938 15.4642C18.3256 14.7222 18.7373 13.7161 18.7385 12.6667V6.33333C18.7373 5.2839 18.3256 4.27782 17.5938 3.53576C16.8619 2.7937 15.8697 2.37626 14.8347 2.375ZM3.90386 3.95833H14.8347C15.4559 3.95833 16.0517 4.20856 16.4909 4.65395C16.9302 5.09935 17.177 5.70344 17.177 6.33333H1.56155C1.56155 5.70344 1.80832 5.09935 2.24759 4.65395C2.68686 4.20856 3.28264 3.95833 3.90386 3.95833ZM14.8347 15.0417H3.90386C3.28264 15.0417 2.68686 14.7914 2.24759 14.346C1.80832 13.9006 1.56155 13.2966 1.56155 12.6667V7.91667H17.177V12.6667C17.177 13.2966 16.9302 13.9006 16.4909 14.346C16.0517 14.7914 15.4559 15.0417 14.8347 15.0417Z" fill="white"/>
</g>
<defs>
<clipPath id="clip0_44_984">
<rect width="18.7385" height="19" fill="white"/>
</clipPath>
</defs>
</svg>
