<svg width="8" height="8" viewBox="0 0 8 8" fill="none" xmlns="http://www.w3.org/2000/svg">
<g clip-path="url(#clip0_1016_2250)">
<path d="M3.81725 4.67281C2.39667 4.80122 1.31439 6.00158 1.33325 7.42782V7.50014C1.33325 7.77628 1.55711 8.00014 1.83325 8.00014C2.10939 8.00014 2.33325 7.77628 2.33325 7.50014V7.40782C2.31822 6.53211 2.96447 5.78534 3.83325 5.67449C4.75033 5.58355 5.5675 6.25327 5.65844 7.17035C5.66381 7.22457 5.66653 7.279 5.66658 7.33349V7.50014C5.66658 7.77628 5.89044 8.00014 6.16658 8.00014C6.44272 8.00014 6.66658 7.77628 6.66658 7.50014V7.33347C6.66495 5.85905 5.46838 4.66512 3.99397 4.66675C3.93502 4.66683 3.87608 4.66884 3.81725 4.67281Z" fill="white"/>
<path d="M4 4C5.10456 4 6 3.10456 6 2C6 0.895437 5.10456 0 4 0C2.89544 0 2 0.895437 2 2C2.00109 3.10411 2.89589 3.99889 4 4ZM4 1C4.55228 1 5 1.44772 5 2C5 2.55228 4.55228 3 4 3C3.44772 3 3 2.55228 3 2C3 1.44772 3.44772 1 4 1Z" fill="white"/>
</g>
<defs>
<clipPath id="clip0_1016_2250">
<rect width="8" height="8" fill="white"/>
</clipPath>
</defs>
</svg>
